HIERARCHY
ROOT Hips
{
 OFFSET 0.000000 0.000000 0.000000
 CHANNELS 6 Xposition Yposition Zposition Yrotation Xrotation Zrotation
 JOINT Chest
 {
  OFFSET 0.000000 9.585900 0.002600
  CHANNELS 3 Yrotation Xrotation Zrotation
  JOINT Chest2
  {
   OFFSET 0.000000 9.601200 -0.005300
   CHANNELS 3 Yrotation Xrotation Zrotation
   JOINT Chest3
   {
    OFFSET 0.000000 9.561800 0.000000
    CHANNELS 3 Yrotation Xrotation Zrotation
    JOINT Chest4
    {
     OFFSET 0.000000 9.552100 0.000000
     CHANNELS 3 Yrotation Xrotation Zrotation
     JOINT Neck
     {
      OFFSET 0.000000 14.453000 0.000000
      CHANNELS 3 Yrotation Xrotation Zrotation
      JOINT Head
      {
       OFFSET 0.000000 8.936500 -0.011300
       CHANNELS 3 Yrotation Xrotation Zrotation
       End Site
       {
        OFFSET 0.000000 17.073600 -0.006000
       }
      }
     }
     JOINT RightCollar
     {
      OFFSET -2.921100 9.558500 0.000000
      CHANNELS 3 Yrotation Xrotation Zrotation
      JOINT RightShoulder
      {
       OFFSET -13.519700 0.000000 0.000000
       CHANNELS 3 Yrotation Xrotation Zrotation
       JOINT RightElbow
       {
        OFFSET 0.000000 -29.696600 0.000000
        CHANNELS 3 Yrotation Xrotation Zrotation
        JOINT RightWrist
        {
         OFFSET 0.000000 -24.004700 0.000000
         CHANNELS 3 Yrotation Xrotation Zrotation
         End Site
         {
          OFFSET 0.000000 -17.728500 0.000000
         }
        }
       }
      }
     }
     JOINT LeftCollar
     {
      OFFSET 2.921100 9.558500 0.000000
      CHANNELS 3 Yrotation Xrotation Zrotation
      JOINT LeftShoulder
      {
       OFFSET 13.519700 0.000000 0.000000
       CHANNELS 3 Yrotation Xrotation Zrotation
       JOINT LeftElbow
       {
        OFFSET 0.000000 -29.696600 0.000000
        CHANNELS 3 Yrotation Xrotation Zrotation
        JOINT LeftWrist
        {
         OFFSET 0.000000 -24.004700 0.000000
         CHANNELS 3 Yrotation Xrotation Zrotation
         End Site
         {
          OFFSET 0.000000 -17.728500 0.000000
         }
        }
       }
      }
     }
    }
   }
  }
 }
 JOINT RightHip
 {
  OFFSET -7.771700 -0.012900 -0.001300
  CHANNELS 3 Yrotation Xrotation Zrotation
  JOINT RightKnee
  {
   OFFSET 0.000000 -40.869800 0.001200
   CHANNELS 3 Yrotation Xrotation Zrotation
   JOINT RightAnkle
   {
    OFFSET 0.000000 -39.717900 0.002100
    CHANNELS 3 Yrotation Xrotation Zrotation
    JOINT RightToe
    {
     OFFSET 0.000000 -4.965400 11.033500
     CHANNELS 3 Yrotation Xrotation Zrotation
     End Site
     {
      OFFSET 0.000000 -1.423100 5.872300
     }
    }
   }
  }
 }
 JOINT LeftHip
 {
  OFFSET 7.771700 -0.012900 -0.001300
  CHANNELS 3 Yrotation Xrotation Zrotation
  JOINT LeftKnee
  {
   OFFSET 0.000000 -40.869800 0.001200
   CHANNELS 3 Yrotation Xrotation Zrotation
   JOINT LeftAnkle
   {
    OFFSET 0.000000 -39.717900 0.002100
    CHANNELS 3 Yrotation Xrotation Zrotation
    JOINT LeftToe
    {
     OFFSET 0.000000 -4.965400 11.033500
     CHANNELS 3 Yrotation Xrotation Zrotation
     End Site
     {
      OFFSET 0.000000 -1.423100 5.872300
     }
    }
   }
  }
 }
}
MOTION
Frames: 15
Frame Time: 0.008333
-28.696170 62.028935 12.302720 177.604394 -51.663269 -0.364865 3.328019 26.715560 2.502485 0.425389 4.543312 0.408515 0.691240 7.204170 0.665080 2.423482 21.704289 2.390402 1.476243 17.262160 -0.305141 2.802044 -3.763904 -1.009041 4.334710 5.099792 4.206745 -4.570187 -8.195987 -14.971045 -108.611210 -69.171702 141.809929 16.302771 12.678888 3.768818 -11.549964 2.773458 1.253116 25.860787 -34.494575 10.754063 -158.004264 -54.075060 171.682755 10.261983 -11.166730 18.207014 3.173107 -15.252521 -6.979153 -1.650668 61.735135 -5.556945 1.455829 -7.939602 10.781248 0.175103 -0.473381 0.102863 -3.373704 -12.618566 1.663338 23.171387 77.081823 23.177923 0.436221 -11.791562 -2.731492 0.268334 0.615206 0.119979
-28.697622 62.031127 12.312418 177.610721 -51.664531 -0.351607 3.325409 26.722192 2.481561 0.430437 4.552796 0.404297 0.686434 7.201346 0.669458 2.448763 21.765777 2.349906 1.459704 17.205628 -0.247575 2.780614 -3.824487 -0.952928 4.305821 5.083684 4.242540 -4.501966 -8.271301 -14.957254 -108.620024 -69.165405 141.831003 16.297767 12.677836 3.761110 -11.587884 2.770433 1.289428 25.714838 -34.419648 10.869298 -157.970751 -54.182602 171.609513 10.217753 -11.129396 18.151465 3.182950 -15.249008 -6.991246 -1.667358 61.727310 -5.575769 1.462097 -7.933102 10.771455 0.176740 -0.477027 0.113007 -3.371641 -12.613324 1.640065 23.193051 77.049091 23.207766 0.423442 -11.779917 -2.742144 0.273635 0.621356 0.124008
-28.696695 62.035364 12.320552 177.609696 -51.681268 -0.345472 3.327365 26.740570 2.476423 0.438224 4.563208 0.397924 0.684439 7.201665 0.672207 2.460666 21.794550 2.329231 1.450672 17.178541 -0.216518 2.753860 -3.875750 -0.893006 4.294626 5.074284 4.258998 -4.453188 -8.311897 -14.948639 -108.631591 -69.165945 141.855693 16.286014 12.689525 3.721425 -11.613496 2.800971 1.286912 25.589080 -34.350732 10.951652 -157.912988 -54.269291 171.533785 10.175926 -11.096710 18.107816 3.188432 -15.228877 -6.987001 -1.676969 61.716192 -5.590888 1.459783 -7.923781 10.769920 0.184154 -0.482834 0.112138 -3.368510 -12.593170 1.630590 23.190237 77.031857 23.208250 0.437321 -11.770940 -2.749180 0.270295 0.620069 0.124678
-28.697333 62.040823 12.327446 177.606383 -51.707005 -0.327769 3.338284 26.776434 2.458332 0.429183 4.557549 0.404787 0.696977 7.225361 0.659202 2.461243 21.786710 2.332841 1.445113 17.169804 -0.202110 2.723604 -3.919762 -0.832447 4.288763 5.069339 4.267376 -4.381721 -8.318002 -14.977344 -108.658771 -69.148621 141.861774 16.288921 12.666494 3.812611 -11.628960 2.855823 1.258448 25.483705 -34.289411 10.998666 -157.836616 -54.333875 171.461182 10.137227 -11.072327 18.075090 3.194928 -15.198669 -6.994140 -1.672270 61.706381 -5.593586 1.450228 -7.917327 10.768053 0.186559 -0.484484 0.115455 -3.355885 -12.559897 1.604578 23.203562 77.005739 23.232195 0.445431 -11.765572 -2.754179 0.256609 0.623828 0.122035
-28.699968 62.043260 12.336292 177.609136 -51.709365 -0.303669 3.341743 26.787151 2.424870 0.431892 4.565327 0.403116 0.701298 7.236821 0.656570 2.476569 21.814686 2.311894 1.433022 17.133137 -0.159479 2.693806 -3.968508 -0.768496 4.270941 5.026128 4.306348 -4.350917 -8.319500 -14.992385 -108.672880 -69.144986 141.889334 16.289636 12.665231 3.865122 -11.655118 2.886271 1.263819 25.398897 -34.234659 11.011975 -157.741531 -54.375274 171.387794 10.103066 -11.055437 18.057941 3.200835 -15.193367 -7.019631 -1.672320 61.696484 -5.592837 1.441928 -7.915731 10.761856 0.194270 -0.478730 0.118768 -3.345544 -12.552717 1.575771 23.195596 76.970396 23.227724 0.436296 -11.746175 -2.752084 0.253705 0.625579 0.119913
-28.698417 62.047080 12.343779 177.596875 -51.721773 -0.292754 3.368568 26.806694 2.418145 0.450213 4.591342 0.386200 0.693206 7.231880 0.668789 2.489327 21.843175 2.290073 1.421703 17.102131 -0.118451 2.668301 -4.020682 -0.703911 4.256295 4.994865 4.342875 -4.325376 -8.330715 -15.001633 -108.684100 -69.150212 141.912266 16.280050 12.657384 3.876228 -11.678590 2.915352 1.268960 25.336292 -34.183849 10.992074 -157.639039 -54.393355 171.318629 10.076879 -11.043155 18.058458 3.208181 -15.180129 -7.016023 -1.669078 61.687879 -5.591912 1.437491 -7.909402 10.761287 0.205945 -0.490901 0.110737 -3.332599 -12.534385 1.572853 23.173781 76.954603 23.210297 0.447564 -11.743323 -2.754941 0.247553 0.629217 0.118294
-28.697905 62.051991 12.349724 177.582195 -51.742555 -0.273430 3.389739 26.834059 2.406588 0.451721 4.604511 0.381039 0.699190 7.240969 0.666927 2.491795 21.849769 2.280500 1.413060 17.093215 -0.098901 2.645228 -4.063067 -0.644496 4.257276 5.027029 4.328745 -4.323368 -8.388440 -14.962284 -108.671456 -69.182185 141.921806 16.255632 12.629845 3.850334 -11.697034 2.961589 1.246167 25.299703 -34.135973 10.939936 -157.555602 -54.392878 171.266892 10.058905 -11.032734 18.074018 3.204594 -15.160149 -7.020374 -1.652330 61.681144 -5.586439 1.440184 -7.902943 10.761426 0.207422 -0.499306 0.105418 -3.317384 -12.506515 1.563276 23.145562 76.937809 23.185857 0.450855 -11.736714 -2.756651 0.246630 0.626634 0.116121
-28.699301 62.056067 12.355528 177.579438 -51.757045 -0.251710 3.397209 26.862928 2.378774 0.446398 4.601279 0.386242 0.710017 7.264473 0.651847 2.489508 21.826913 2.295750 1.404831 17.104646 -0.099944 2.637223 -4.091818 -0.612400 4.255932 5.033040 4.325898 -4.314309 -8.394738 -14.960457 -108.679534 -69.193932 141.934353 16.281711 12.680521 3.950216 -11.715652 3.024337 1.193256 25.288396 -34.091032 10.859021 -157.517898 -54.377701 171.245584 10.046464 -11.016837 18.102156 3.205979 -15.143135 -7.040431 -1.629436 61.675307 -5.567274 1.428663 -7.904031 10.761158 0.212407 -0.500591 0.102528 -3.307485 -12.486482 1.542838 23.110379 76.918015 23.150951 0.452427 -11.724476 -2.755643 0.242638 0.625066 0.115526
-28.700358 62.058659 12.361655 177.585240 -51.761307 -0.238004 3.403119 26.886028 2.341716 0.438341 4.592901 0.403166 0.724865 7.312108 0.617438 2.497898 21.819173 2.299985 1.396399 17.084313 -0.076533 2.633711 -4.127465 -0.574739 4.252505 5.030630 4.327372 -4.310945 -8.415386 -14.941835 -108.724453 -69.191500 141.982285 16.305792 12.728937 4.002451 -11.728843 3.017412 1.214323 25.301175 -34.003266 10.732330 -157.546657 -54.351733 171.272963 10.038175 -10.993029 18.133674 3.201560 -15.138418 -7.059485 -1.620116 61.671601 -5.558361 1.418578 -7.903860 10.756561 0.218638 -0.503132 0.102988 -3.305531 -12.480610 1.526440 23.058099 76.903366 23.094824 0.461547 -11.707302 -2.748293 0.233658 0.620207 0.110572
-28.697458 62.062619 12.365947 177.568480 -51.777621 -0.228368 3.418027 26.904308 2.343736 0.449887 4.622543 0.370687 0.726322 7.316953 0.620540 2.509915 21.875353 2.239801 1.402709 17.025728 -0.007390 2.596399 -4.165316 -0.493681 4.255784 4.981523 4.375235 -4.302944 -8.433778 -14.922204 -108.737836 -69.223057 142.009751 16.308507 12.743368 4.004186 -11.739387 3.027338 1.239535 25.319251 -33.987792 10.617794 -157.639359 -54.318572 171.347604 10.035886 -10.962859 18.162511 3.198157 -15.123781 -7.061188 -1.635541 61.663564 -5.561878 1.436796 -7.896177 10.739372 0.220583 -0.509267 0.104321 -3.292903 -12.458333 1.531835 23.027179 76.894630 23.065701 0.467020 -11.702906 -2.747948 0.229114 0.617726 0.106823
-28.697081 62.067177 12.368652 177.547992 -51.800751 -0.198385 3.430412 26.937766 2.313984 0.452121 4.626724 0.368014 0.729821 7.326738 0.614080 2.516377 21.887863 2.219588 1.402342 17.012494 0.014774 2.592027 -4.191685 -0.454128 4.256434 4.982009 4.384581 -4.272060 -8.399609 -14.942595 -108.847446 -69.220117 142.089333 16.314927 12.755928 4.011974 -11.745434 3.081191 1.202706 25.349255 -33.975843 10.486220 -157.785211 -54.276893 171.457051 10.043991 -10.924339 18.189868 3.200452 -15.101061 -7.079178 -1.631706 61.660180 -5.555241 1.441859 -7.896466 10.733601 0.227267 -0.507185 0.100218 -3.276353 -12.425729 1.520412 22.989292 76.877672 23.025172 0.464325 -11.696799 -2.751967 0.231659 0.617514 0.110010
-28.695167 62.068874 12.372646 177.537718 -51.804845 -0.183562 3.444708 26.953222 2.278315 0.452466 4.628566 0.375226 0.732519 7.330680 0.612819 2.523262 21.892505 2.212161 1.399795 17.008743 0.021553 2.597390 -4.213924 -0.421586 4.252306 4.995499 4.381816 -4.257048 -8.400734 -14.929755 -108.860529 -69.327402 142.093051 16.258389 12.673552 3.988293 -11.753219 3.127500 1.173372 25.405056 -33.941212 10.321945 -157.981270 -54.221866 171.600130 10.060286 -10.873840 18.212697 3.179906 -15.102526 -7.087539 -1.611290 61.658842 -5.545264 1.447978 -7.893867 10.734189 0.231705 -0.512475 0.089545 -3.269060 -12.418039 1.521644 22.950022 76.868983 22.979953 0.463715 -11.690219 -2.752908 0.230161 0.616213 0.111687
-28.691948 62.070036 12.376096 177.532636 -51.807651 -0.177927 3.451302 26.958293 2.265507 0.455044 4.632453 0.366972 0.735158 7.336420 0.606549 2.530495 21.885951 2.229929 1.394180 17.014973 0.009475 2.589625 -4.223869 -0.394246 4.242294 5.023354 4.352420 -4.242842 -8.398732 -14.914436 -108.903825 -69.399143 142.115810 16.222153 12.622497 3.988904 -11.763154 3.181740 1.119532 25.479606 -33.906618 10.140155 -158.221475 -54.150677 171.777026 10.077195 -10.810103 18.227815 3.179541 -15.101650 -7.092820 -1.628856 61.655572 -5.551052 1.458511 -7.890850 10.723926 0.235542 -0.521145 0.095967 -3.268212 -12.413275 1.534296 22.928626 76.864103 22.940990 0.464915 -11.685364 -2.740875 0.215944 0.614791 0.107275
-28.688797 62.071052 12.378639 177.522958 -51.812232 -0.165609 3.456180 26.963701 2.256694 0.458040 4.634748 0.350417 0.737473 7.340327 0.600253 2.534885 21.898665 2.209922 1.410127 16.997052 0.051224 2.598637 -4.205370 -0.403743 4.243865 5.015363 4.377975 -4.233289 -8.380332 -14.920459 -108.950748 -69.449564 142.136832 16.266640 12.687808 4.018720 -11.765931 3.227723 1.106708 25.569729 -33.872821 9.944502 -158.491447 -54.062741 171.976991 10.097195 -10.742871 18.241878 3.167907 -15.102442 -7.098063 -1.626917 61.656513 -5.553859 1.469866 -7.888228 10.722609 0.233261 -0.526267 0.091652 -3.265689 -12.406143 1.543037 22.885895 76.861183 22.885932 0.461179 -11.680598 -2.743502 0.214245 0.613627 0.115134
-28.685863 62.072107 12.380190 177.512840 -51.819398 -0.149354 3.463683 26.971409 2.233322 0.456277 4.634103 0.347476 0.739718 7.342604 0.606769 2.535845 21.910348 2.175834 1.419037 16.995824 0.064068 2.614480 -4.209148 -0.385487 4.243203 5.012575 4.402748 -4.226359 -8.361496 -14.926161 -108.995611 -69.497599 142.153194 16.288204 12.713768 4.032313 -11.767628 3.278057 1.095410 25.672231 -33.838842 9.733809 -158.771873 -53.957900 172.177889 10.129428 -10.688283 18.268673 3.159048 -15.100504 -7.103810 -1.615957 61.660128 -5.552056 1.466872 -7.886348 10.724293 0.232236 -0.532029 0.088372 -3.262058 -12.396040 1.548857 22.853008 76.858310 22.838659 0.453197 -11.677306 -2.739255 0.217252 0.611486 0.115050
